<svg width="116" height="23" viewBox="0 0 116 23" fill="none" xmlns="http://www.w3.org/2000/svg">
<g clip-path="url(#clip0)">
<path d="M32.3787 5.45444C32.2021 5.4565 32.0336 5.5256 31.9095 5.64676C31.7854 5.76791 31.7158 5.93136 31.7158 6.10167V19.2158C30.6917 19.4427 29.6442 19.5565 28.5935 19.5551C26.2477 19.5551 25.4008 18.7121 25.4008 16.2433V6.10167C25.4048 6.0185 25.3914 5.9354 25.3613 5.85736C25.3312 5.77932 25.2851 5.70795 25.2257 5.64751C25.1663 5.58707 25.0949 5.53882 25.0157 5.50565C24.9366 5.47247 24.8513 5.45506 24.765 5.45444H21.1854V16.272C21.1854 21.348 23.9641 22.9974 28.4636 22.9974C32.0621 22.9974 35.6201 22.0005 35.9204 21.9195V5.45444H32.3787ZM87.071 22.8043C87.2471 22.8015 87.415 22.7321 87.5385 22.611C87.662 22.49 87.7312 22.3269 87.7312 22.157V8.92545C88.7562 8.69876 89.8046 8.58494 90.8562 8.58618C93.1993 8.58618 94.0489 9.42914 94.0489 11.898V22.157C94.0449 22.24 94.0583 22.3229 94.0882 22.4007C94.1181 22.4786 94.164 22.5499 94.2231 22.6103C94.2822 22.6707 94.3533 22.719 94.4321 22.7523C94.511 22.7856 94.596 22.8033 94.6821 22.8043H98.2644V11.8693C98.2644 6.79326 95.4856 5.14388 90.9834 5.14388C87.3876 5.14388 83.8296 6.14081 83.5293 6.22172V22.8043H87.071ZM72.7824 5.16476C68.1503 5.16476 65.2228 7.59185 65.2228 12.7775V15.3873C65.2228 21.1288 68.3857 22.9974 71.8165 22.9974C73.5048 22.9974 75.2392 21.8595 75.81 21.134V22.2066C75.8155 22.366 75.8837 22.5173 76.0009 22.6299C76.118 22.7424 76.2752 22.8075 76.4405 22.8121H80.0119V6.15908C77.6547 5.53735 75.2259 5.2033 72.7824 5.16476ZM75.81 18.5869C75.0335 19.2184 74.4274 19.6308 72.7824 19.6751C70.4366 19.6751 69.4247 18.292 69.4247 15.3377V12.9341C69.4247 9.54136 70.7234 8.59923 72.7824 8.59923C73.7962 8.574 74.8102 8.64392 75.81 8.80801V18.5869ZM108.768 5.16476C104.136 5.16476 101.208 7.59185 101.208 12.7775V15.3873C101.208 21.1288 104.374 22.9974 107.802 22.9974C109.49 22.9974 111.225 21.8595 111.795 21.134V22.2066C111.801 22.366 111.869 22.5173 111.986 22.6299C112.103 22.7424 112.261 22.8075 112.426 22.8121H116V6.15908C113.642 5.53749 111.212 5.20344 108.768 5.16476ZM111.795 18.5869C111.019 19.2184 110.416 19.6308 108.768 19.6751C106.419 19.6751 105.413 18.292 105.413 15.3377V12.9341C105.413 9.54136 106.709 8.59923 108.768 8.59923C109.782 8.574 110.796 8.64392 111.795 8.80801V18.5869ZM0 22.8017H3.7717C3.93806 22.7922 4.09495 22.7239 4.21229 22.6097C4.32963 22.4956 4.39915 22.3437 4.40753 22.1831V12.5844H11.3638C11.8821 12.5771 12.3829 12.7654 12.7594 13.1091C13.1359 13.4528 13.3584 13.9247 13.3795 14.4243V22.1831C13.3822 22.3439 13.4489 22.4975 13.5657 22.6121C13.6826 22.7268 13.8406 22.7937 14.0072 22.799H17.7952V0H14.0072C13.8474 0.00344938 13.6946 0.064142 13.5785 0.170267C13.4625 0.276393 13.3916 0.420359 13.3795 0.574152V9.13423H6.13916C5.68801 9.13507 5.25439 8.96578 4.93087 8.66249C4.60734 8.35921 4.41953 7.94596 4.40753 7.51095V0.574152C4.39534 0.419035 4.32325 0.273977 4.20551 0.167662C4.08778 0.0613469 3.93297 0.00151589 3.7717 0L0 0V22.8017ZM55.8666 5.1491C53.8644 5.1491 51.965 5.90071 51.1263 6.47487C49.833 5.53535 48.0743 5.1491 45.8935 5.1491C43.6893 5.1651 41.5048 5.55102 39.4378 6.28957V22.8043H43.0038C43.0901 22.8033 43.1752 22.7856 43.2542 22.7523C43.3332 22.719 43.4044 22.6708 43.4637 22.6104C43.523 22.55 43.5692 22.4788 43.5994 22.4009C43.6296 22.3231 43.6433 22.2401 43.6397 22.157V8.8863C44.3113 8.69594 45.0068 8.59496 45.7068 8.58618C48.1717 8.58618 48.7723 9.54136 48.7723 11.898V22.157C48.7708 22.3238 48.8366 22.4846 48.9557 22.6054C49.0749 22.7262 49.2381 22.7975 49.4109 22.8043H52.3492C52.4361 22.8051 52.5222 22.7887 52.6023 22.7561C52.6823 22.7235 52.7545 22.6753 52.8144 22.6146C52.8743 22.5539 52.9206 22.4819 52.9504 22.4032C52.9803 22.3245 52.993 22.2407 52.9878 22.157V9.39521C53.6835 8.85456 54.5539 8.56642 55.4472 8.58096C57.3412 8.58096 58.1231 9.40826 58.1231 11.6605V22.157C58.1194 22.3235 58.1838 22.4847 58.3022 22.6057C58.4207 22.7268 58.5837 22.7981 58.7562 22.8043H62.3196V11.1098C62.3196 6.67321 59.4489 5.1491 55.8666 5.1491Z" fill="#4E8416"/>
</g>
<defs>
<clipPath id="clip0">
<rect width="116" height="23" fill="white"/>
</clipPath>
</defs>
</svg>
